<?xml version="1.0" encoding="utf-8"?>
<!-- Generator: Adobe Illustrator 23.1.0, SVG Export Plug-In . SVG Version: 6.00 Build 0)  -->
<svg version="1.1" id="Layer_1" xmlns="http://www.w3.org/2000/svg" xmlns:xlink="http://www.w3.org/1999/xlink" x="0px" y="0px"
	 viewBox="0 0 990 428.1" style="enable-background:new 0 0 990 428.1;" xml:space="preserve">
<style type="text/css">
	.st0{fill:#3A3A3A;}
	.st1{fill:none;stroke:#FF00FF;stroke-width:2;stroke-miterlimit:10;}
	.st2{fill:#333333;stroke:#333333;stroke-width:2;stroke-miterlimit:10;}
	.st3{stroke:#000000;stroke-width:2;stroke-miterlimit:10;}
	.st4{fill:#85573D;stroke:#2E1700;stroke-width:8;stroke-miterlimit:10;}
	.st5{fill:#998675;stroke:#998675;stroke-width:2;stroke-miterlimit:10;}
	.st6{fill:#8C6239;}
	.st7{fill:#F7E7CB;stroke:#2E1700;stroke-width:10;stroke-miterlimit:10;}
	.st8{fill:#D2A56F;stroke:#2E1700;stroke-width:5;stroke-miterlimit:10;}
	.st9{fill:#1A1A1A;stroke:#1A1A1A;stroke-width:1.9244;stroke-miterlimit:10;}
	.st10{stroke:#000000;stroke-width:1.9244;stroke-miterlimit:10;}
	.st11{fill:#534741;stroke:#534741;stroke-width:1.9244;stroke-miterlimit:10;}
	.st12{fill:#736357;stroke:#736357;stroke-width:1.9244;stroke-miterlimit:10;}
	.st13{fill:#666666;stroke:#666666;stroke-width:1.9244;stroke-miterlimit:10;}
	.st14{stroke:#000000;stroke-width:1.9244;stroke-miterlimit:10.0002;}
	.st15{fill:#4D4D4D;stroke:#4D4D4D;stroke-width:1.9244;stroke-miterlimit:10;}
	.st16{fill:#333333;stroke:#333333;stroke-width:1.9244;stroke-miterlimit:10;}
	.st17{fill:#333333;stroke:#1A1A1A;stroke-width:1.9244;stroke-miterlimit:10;}
	.st18{fill:#C7B299;stroke:#C7B299;stroke-width:1.9244;stroke-miterlimit:10;}
	.st19{fill:#998675;stroke:#998675;stroke-width:1.9244;stroke-miterlimit:10;}
	.st20{fill:none;stroke:#000000;stroke-width:1.9244;stroke-miterlimit:10;}
	.st21{fill:#1A1A1A;stroke:#1A1A1A;stroke-width:1.9244;stroke-miterlimit:10.0002;}
	.st22{fill:#666666;stroke:#4D4D4D;stroke-width:1.9244;stroke-miterlimit:10.0002;}
	.st23{fill:#2E1700;}
	.st24{fill:#D1A75D;}
	.st25{fill:#F4C56A;}
	.st26{fill:#F7E7CB;stroke:#2E1700;stroke-width:7;stroke-miterlimit:10;}
</style>
<polygon class="st0" points="96.7,515.6 369.3,616 445.5,448.7 336.7,391.1 83.9,489.9 "/>
<path class="st1" d="M-511.7,244.8"/>
<path class="st2" d="M-672-1101.2"/>
<path class="st2" d="M-672-1101.2"/>
<path class="st3" d="M50-16.4"/>
<g>
	<polygon class="st4" points="712.3,734.6 958.9,631.7 933.6,232.1 689.4,324 	"/>
	<polygon class="st4" points="103.3,510.4 340.2,418.7 330.5,265.9 82.7,184.9 	"/>
	<path class="st5" d="M369.5,115.5"/>
	<path class="st6" d="M367.3,435.2"/>
	<polygon class="st7" points="22.7,126.2 45.7,487.6 94.6,508.2 79.9,188.4 359.7,277.1 374.5,615.2 707,732.8 680.9,321.2 	"/>
	<polygon class="st4" points="405.4,293 413.9,426.9 652,514.1 642.9,371.8 	"/>
	<polygon class="st4" points="415.8,457 424.3,590.9 662.4,678.1 653.3,535.8 	"/>
	<polygon class="st8" points="504.8,535.7 506.5,561.8 568,586.6 566.3,559.2 	"/>
	<polygon class="st8" points="494.5,372.2 496.1,398.4 557.6,423.1 555.9,395.8 	"/>
	<polygon class="st4" points="30.3,120.1 686.1,321.9 930.3,230 267.2,45.2 	"/>
</g>
<g>
	<g>
		<path class="st9" d="M850,110.1c0,0-5.2-23.6-4.4-25.6c0.9-2,14-4.3,18.1-1.2c4,3.2,5.1,18.3,6.6,21.9c1.5,3.6-12.8,4.4-12.8,4.4
			L850,110.1z"/>
		<path class="st9" d="M845.4,87.7c0,0,5.7,28.1,7.4,30.2c1.8,2,15.3,2.5,17.7-1.9c2.5-4.4-3.4-21.9-3.7-26.4
			c-0.2-4.4-14.1-2.6-14.1-2.6L845.4,87.7z"/>
	</g>
	<polygon class="st10" points="699.6,242.8 836.6,170.6 832.7,181.8 	"/>
	<polygon class="st11" points="639.4,83.5 625.1,83.2 624.9,105.6 541.9,103.8 542.2,75.6 639.1,77.7 	"/>
	<path class="st12" d="M843,64.7C792.6,75.6,742.1,86.3,691.6,97c-17.4-0.5-34.9-1-52.3-1.5l-0.1-5.4l123-21.5l0.1-6.3l0-1.9
		c26.4-0.1,52.7-0.1,79.2-0.1C842.1,61.8,842.6,63.2,843,64.7z"/>
	<polygon class="st13" points="682.3,167.6 682.4,155.2 694.9,155.5 694.8,168.6 	"/>
	<polygon class="st13" points="506.2,140.3 506.1,152.4 493.8,151.3 495.2,139.3 	"/>
	<polygon class="st10" points="771,210 770.9,213.6 780.9,213.8 781,205.4 	"/>
	<polygon class="st10" points="771,210 762,214.2 761.8,232 770.7,232.2 	"/>
	<g>
		<polygon class="st11" points="762.3,62.3 762.3,68.5 639.4,90.1 639.2,83.4 714.6,70.7 		"/>
		<g>
			<polygon class="st11" points="762.3,62.3 639.2,83.4 638.9,77.6 759.9,58.7 762.3,60.4 			"/>
		</g>
	</g>
	<polygon class="st10" points="677.8,242.4 677.6,259.6 680.8,259.8 690.2,259.9 688.6,242.6 	"/>
	<polygon class="st14" points="516.3,244.7 516.5,225.3 529,225.6 528.9,244.9 	"/>
	<polygon class="st15" points="694.7,154.9 694.6,167.6 851.8,110.6 851.9,102.5 	"/>
	<polygon class="st16" points="695.2,226 699.6,242.8 836.6,170.6 842.7,167.4 842.8,154.2 	"/>
	<path class="st17" d="M695,232.7c-1.7-0.7-3.3-1.4-5.2-2"/>
	<polygon class="st16" points="501.1,208 685.2,225.8 688.6,242.6 502.6,223.2 	"/>
	<path class="st16" d="M699.6,242.8c-1.4-5.5-2.8-11.3-4.2-16.8c-3.4-0.1-6.8-0.1-10.1-0.2l3.5,16.8L699.6,242.8z"/>
	<polygon class="st18" points="694.9,155.5 691.7,97 843.1,64.7 855.6,101.8 	"/>
	<path class="st19" d="M693.9,155.2l-13.5-0.3c-0.3-19.6-0.8-39-1.1-58.6c4,0.2,7.8,0.5,11.8,0.6L693.9,155.2z"/>
	<path class="st19" d="M718.3,55.2"/>
	<path class="st12" d="M638.9,77.6c-4.8-0.1-9.4-0.2-14.2-0.3c-27.4-0.5-55-1.1-82.4-1.7c-10.2,1-20.3,1.9-30.5,2.9
		c-5.3-0.1-10.5-0.1-15.9-0.3c41.1-5,82.3-9.9,123.4-14.9c14.2-1.7,28.5-3.3,42.6-5l22.3-2.6c25.2,0.9,50.5,1.9,75.8,2.9
		C719.6,64.9,679.2,71.2,638.9,77.6z"/>
	<path class="st20" d="M852.2,192.7"/>
	<path class="st19" d="M522.2-1.2"/>
	<polygon class="st12" points="511,103.1 541.9,103.8 542.2,75.6 510.6,78.7 	"/>
	<path class="st11" d="M536.4-5"/>
	<path class="st16" d="M688.6,75.6"/>
	<path class="st10" d="M662.5,78.2"/>
	<path class="st10" d="M672.3,42"/>
	<g>
		<path class="st10" d="M640.8,56.7c-13.1,8.6,1.7,19.5,1.7,19.5c20.6,11.9,70.3,10.3,70.3,10.3s39.3-1.7,52.5-10.6
			c13.2-8.9,4.7-16.5,0.7-18.4C766,57.3,653.8,48.3,640.8,56.7z"/>
		<path class="st16" d="M728.5,43.3c-4.1,0.9-8.1,1.7-12,2.6c-3.9,0.6-7.5,1-10.9,1.2c-7.7,0.4-36.6-5-48.1-6.7
			c-4.2-0.6-10.6-1.4-18.4-1.7c0.3,7.1,0.5,14.1,0.9,21.3c8.2,5.4,21.4,12.7,39.1,16.4c13,2.7,23.1,2.3,29.3,1.9
			c8.9-0.5,26.5-1.6,45.9-11.3c6.3-3.1,11.1-6.4,14.4-8.7c-0.4-8-0.7-15.9-1-23.8C754.9,37.5,741.8,40.5,728.5,43.3z"/>
		
			<ellipse transform="matrix(0.9993 -3.683511e-02 3.683511e-02 0.9993 -0.8392 25.9164)" class="st21" cx="702.9" cy="35.7" rx="64.4" ry="11"/>
		
			<ellipse transform="matrix(0.9993 -3.682867e-02 3.682867e-02 0.9993 -0.7775 25.9654)" class="st14" cx="704.4" cy="34.1" rx="39.8" ry="6.9"/>
		
			<ellipse transform="matrix(0.9993 -3.693383e-02 3.693383e-02 0.9993 -0.8768 26.0436)" class="st22" cx="704.5" cy="36.8" rx="32.6" ry="3.5"/>
	</g>
	<path class="st16" d="M759.9-6.7"/>
	<polygon class="st13" points="682.3,167.6 506.1,152.4 506.2,140.3 682.4,155.2 	"/>
	<path class="st19" d="M678.9,96.4l-39.6-0.9c-0.1-5.4-0.2-11-0.4-16.4c-4.9,0.1-9.7,0.3-14.5,0.4c0.1,8.7,0.2,17.2,0.3,26L511,103
		l-0.4-24.5l-14.9-0.4l-0.6,61.1c62.4,5.3,124.9,10.6,187.3,15.9C681.3,135.7,680.1,115.9,678.9,96.4L678.9,96.4z"/>
	<polygon class="st9" points="501.1,208 695.2,226 694.8,168.6 493.8,151.3 	"/>
	<path class="st10" d="M855.4,112.8l-3.8,37.2l-157.3,76l0.5-57.4c53.6-20.4,107.2-40.7,160.9-61.2
		C855.7,109.3,855.5,111,855.4,112.8z"/>
</g>
<g>
	<path class="st23" d="M162.1,111.1c26.2-12.8,52.5-25.6,78.7-38.4l134,14.7c0,0,11,42.3,9,56.7l-67.9,31.3l-134.6-14.7l-17.3-9
		l-0.6-9l10.1-0.6l-0.6-28C169.3,113.2,165.7,112.2,162.1,111.1z"/>
	<path class="st24" d="M169.6,149.6c0,0,81.6,15.7,87,15.9c5.4,0.3,57,4.7,57,4.7l67.9-30c-3.1-15.7-6.2-31.5-9.3-47.2
		c-22.1,9.8-44.4,19.5-66.5,29.4l3.9,32.6l0.3,4.8L169.6,149.6z"/>
	<path class="st25" d="M172.2,112.3c45.2,3.3,90.4,6.7,135.6,9.9c21.9-9.6,44-19.3,65.9-28.9c-42.8-5.5-85.7-11.1-128.5-16.6
		C220.9,88.6,196.5,100.4,172.2,112.3z"/>
	<polygon class="st26" points="174.5,115.2 176.2,141.8 308.8,160.2 306.5,125.1 	"/>
</g>
<g>
	<path class="st23" d="M164.1,54.4c24.2-12.7,48.4-25.3,72.6-38l124,15.4c0,0,10.4,42.3,8.6,56.8l-62.6,30.8l-124.6-15.2l-16-9.1
		l-0.6-8.9l9.4-0.6l-0.7-28C170.8,56.5,167.4,55.5,164.1,54.4z"/>
	<path class="st24" d="M171.2,92.9c0,0,75.6,16,80.5,16.3c5,0.3,52.7,5,52.7,5l62.6-29.6c-2.9-15.7-5.9-31.5-8.8-47.2
		c-20.4,9.7-40.9,19.3-61.3,29l3.8,32.6l0.3,4.8L171.2,92.9z"/>
	<path class="st25" d="M173.5,55.6c41.8,3.6,83.7,7.1,125.5,10.6c20.2-9.5,40.6-19.1,60.8-28.6c-39.6-5.7-79.3-11.5-118.9-17.2
		C218.5,32.1,196,43.9,173.5,55.6z"/>
	<polygon class="st26" points="175.6,58.5 177.3,85.1 300,104.2 297.8,69.1 	"/>
</g>
</svg>
