<?xml version="1.0" encoding="utf-8"?>
<!-- Generator: Adobe Illustrator 23.1.0, SVG Export Plug-In . SVG Version: 6.00 Build 0)  -->
<svg version="1.1" id="Layer_1" xmlns="http://www.w3.org/2000/svg" xmlns:xlink="http://www.w3.org/1999/xlink" x="0px" y="0px"
	 viewBox="0 0 720 720" style="enable-background:new 0 0 720 720;" xml:space="preserve">
<style type="text/css">
	.st0{fill:#526472;}
	.st1{fill:#8C6239;}
	.st2{fill:#8095A6;}
	.st3{fill:#638286;}
	.st4{fill:#B2D6E5;}
	.st5{fill:#161E26;}
	.st6{fill:#555B61;}
	.st7{fill:#D9EAED;}
	.st8{fill:#845F46;}
	.st9{fill:#4F3E2C;}
	.st10{fill:#BCD5DA;}
	.st11{fill:#455869;}
	.st12{fill:#5B7490;}
	.st13{fill:#232F3A;}
	.st14{fill:#1E282B;}
	.st15{fill:#D4E8F1;}
	.st16{fill:#92B8C4;}
	.st17{fill:#C7E4F1;}
	.st18{fill:#711A18;}
	.st19{fill:#AE272A;}
	.st20{fill:#197126;}
	.st21{fill:#2DB539;}
	.st22{fill:#606060;stroke:#BCD5DA;stroke-width:1;stroke-miterlimit:9.9996;}
	.st23{fill:#637A81;}
</style>
<g>
	<path class="st0" d="M333.6,568.1l-169.1,13.3l1.5,139.5c184.6,0,369.1,0.1,553.7,0.1c0-39.6,0-79.3,0-118.9c0-11.7,0-23.3,0-35
		c0-8.7,0-17.3,0-26C591,550.1,462.3,559.1,333.6,568.1z"/>
	<polygon class="st0" points="246,655.4 164.5,591.6 164.5,581.3 352.4,720.8 328.9,720.8 	"/>
</g>
<path class="st1" d="M462.7,664"/>
<g>
	<path class="st2" d="M536.3,455.7c6.8,1.7,13.6,3.4,20.4,5c8.2-9.9,16.3-19.7,24.5-29.6c-6.4-2.2-12.9-4.5-19.3-6.7
		C553.4,434.9,544.9,445.3,536.3,455.7z"/>
	<path class="st0" d="M554.6,463.2c4-0.7,8-1.4,12-2c7.6-9.9,15.1-19.7,22.7-29.6c-3,0.1-6.1,0.3-9.1,0.4
		C571.7,442.4,563.2,452.8,554.6,463.2z"/>
	<path class="st2" d="M406.9,450c-9.3,1-18.6,2.1-27.9,3.1c-9.6-21.6-19.2-43.3-28.8-64.9c10-0.6,20.1-1.2,30.1-1.8
		C389.2,407.6,398,428.8,406.9,450z"/>
	
		<ellipse transform="matrix(0.9025 -0.4306 0.4306 0.9025 -139.5444 216.0882)" class="st0" cx="407.6" cy="416.3" rx="19.2" ry="49"/>
	<g>
		
			<ellipse transform="matrix(8.900280e-02 -0.996 0.996 8.900280e-02 44.7581 667.7098)" class="st3" cx="387.4" cy="309.4" rx="98.1" ry="94.6"/>
		
			<ellipse transform="matrix(8.900280e-02 -0.996 0.996 8.900280e-02 38.1647 658.2151)" class="st4" cx="378.9" cy="308.2" rx="98.1" ry="94.6"/>
		
			<ellipse transform="matrix(0.9979 -6.410278e-02 6.410278e-02 0.9979 -18.9981 24.41)" class="st5" cx="370.9" cy="308.3" rx="86.7" ry="87.4"/>
		<path class="st6" d="M399.3,295.1l58.3,7.9c0,0,0.3,10.5-0.8,17.1s-2.1,12.4-3.7,17.1s-3.2,8.8-3.2,8.8l-68.8-27.4L399.3,295.1z"
			/>
	</g>
	<g>
		
			<ellipse transform="matrix(8.900227e-02 -0.996 0.996 8.900227e-02 15.0386 624.8955)" class="st3" cx="349.1" cy="304.2" rx="98.1" ry="94.6"/>
		
			<ellipse transform="matrix(8.900227e-02 -0.996 0.996 8.900227e-02 8.4454 615.4006)" class="st4" cx="340.6" cy="303.1" rx="98.1" ry="94.6"/>
		<path d="M281,244.8l34.1,29.1c0,0,15.1-3.9,22.6-1.9l16.6-52.7C354.3,219.3,321.8,208.1,281,244.8z"/>
		<path d="M354.3,279.1l7.4-56.2c0,0,50.3,20.5,51.6,46.7l-53.1,21.6L354.3,279.1z"/>
		<path d="M361.9,304.1l54-24.7c0,0,16.5,43.8-13.9,76.3l-41.9-38.1C360.1,317.5,363.3,307,361.9,304.1z"/>
		<path d="M339.2,334.8l13.8-7.3l44.5,33.9c0,0-33,40.8-73.2,25.8L339.2,334.8z"/>
		<path d="M305.5,324.4c0,0,15.5,11.7,18.1,12l-9,48.1c0,0-35.8-10.3-50-47.4L305.5,324.4z"/>
		<path d="M300.9,313.2l-38.4,16.3c0,0-9.5-48.3,13-75l31,29.5C306.5,284.1,299.2,308.4,300.9,313.2z"/>
		
			<ellipse transform="matrix(0.9979 -6.410278e-02 6.410278e-02 0.9979 -18.6639 21.8263)" class="st3" cx="330.8" cy="301.8" rx="35.7" ry="36"/>
		
			<ellipse transform="matrix(9.470055e-02 -0.9955 0.9955 9.470055e-02 -4.4607 597.1399)" class="st7" cx="326.1" cy="301" rx="32.5" ry="31.1"/>
	</g>
	<g>
		
			<ellipse transform="matrix(0.1107 -0.9939 0.9939 0.1107 188.5021 931.5123)" class="st3" cx="614.8" cy="360.4" rx="85.2" ry="79.2"/>
		
			<ellipse transform="matrix(0.1107 -0.9939 0.9939 0.1107 183.1437 923.6055)" class="st4" cx="607.7" cy="359.5" rx="85.2" ry="79.2"/>
		
			<ellipse transform="matrix(9.719660e-02 -0.9953 0.9953 9.719660e-02 184.7214 922.6924)" class="st5" cx="601" cy="359.5" rx="75.9" ry="72.6"/>
		<path class="st6" d="M624.8,348l48.8,6.6c0,0,0.2,9.1-0.8,14.9s-1.8,10.7-3.2,14.8c-1.4,4.1-2.7,7.6-2.7,7.6l-57.5-23.5L624.8,348
			z"/>
	</g>
	<g>
		
			<ellipse transform="matrix(0.1107 -0.9939 0.9939 0.1107 164.3084 895.858)" class="st3" cx="582.7" cy="356.1" rx="85.2" ry="79.2"/>
		
			<ellipse transform="matrix(0.1107 -0.9939 0.9939 0.1107 158.95 887.9512)" class="st4" cx="575.6" cy="355.2" rx="85.2" ry="79.2"/>
		<path d="M525.9,304.8l28.4,25.1c0,0,12.7-3.4,18.9-1.7l14.2-45.8C587.4,282.5,560.2,272.8,525.9,304.8z"/>
		<path d="M587.1,334.3l6.4-48.8c0,0,42.1,17.6,43,40.3l-44.6,19L587.1,334.3z"/>
		<path d="M593.4,356l45.3-21.7c0,0,13.6,37.9-11.9,66.2l-34.9-32.9C591.8,367.6,594.6,358.5,593.4,356z"/>
		<path d="M574.2,382.7l11.5-6.4l37.1,29.2c0,0-27.8,35.5-61.4,22.7L574.2,382.7z"/>
		<path d="M546.1,373.8c0,0,12.9,10.1,15.1,10.4l-7.8,41.8c0,0-29.9-8.8-41.6-40.9L546.1,373.8z"/>
		<path d="M542.3,364.1L510,378.5c0,0-7.8-41.9,11.2-65.1l25.8,25.5C547.1,338.8,540.9,360,542.3,364.1z"/>
		
			<ellipse transform="matrix(9.719660e-02 -0.9953 0.9953 9.719660e-02 159.8771 884.3638)" class="st3" cx="567.4" cy="354.1" rx="31.2" ry="29.9"/>
		
			<ellipse transform="matrix(0.1122 -0.9937 0.9937 0.1122 149.0071 873.675)" class="st7" cx="563.4" cy="353.4" rx="28.2" ry="26.1"/>
	</g>
	<path class="st8" d="M322.6,463.3c0,0,61.5-17.6,104.3-17.9c14.3-1,29.9-1.5,46.5-1.2c19.8,0.4,38.1,1.9,54.7,4
		c2,58.7,3.9,117.4,5.9,176.1c-55.6,0.8-111.2,1.5-166.8,2.3C352.3,572.3,337.4,517.8,322.6,463.3z"/>
	<path class="st9" d="M528.1,448.3c2,58.7,3.9,117.4,5.9,176.1c24.4-0.5,48.8-0.9,73.1-1.4l21.2-161.3c-14.1-3.6-29.8-6.9-47.1-9.3
		C561.9,449.8,544,448.6,528.1,448.3z"/>
	<path class="st10" d="M362.4,618.1c0,0-5.8,9.5-7,14.3l175,6l87.3-17.9c0,0-5.7-12.5-8.9-11.5S528.3,624,528.3,624L362.4,618.1z"/>
	<path class="st11" d="M396.9,567.2c-28.3-3.6-56.7-7.3-85-10.9c-1.3-14.5-2.6-29-3.9-43.5c29.5,1.6,59,3.2,88.4,4.8
		C396.6,534.2,396.7,550.7,396.9,567.2z"/>
	<path class="st12" d="M396,517.8c-29.3-1.6-58.7-3.3-88-4.9c8.2-3.6,16.3-7.3,24.5-10.9c27.8,0.1,55.5,0.2,83.3,0.3
		C409.2,507.4,402.6,512.6,396,517.8z"/>
	<path class="st13" d="M396,517.8c6.6-5.2,13.2-10.4,19.8-15.6c0.8,24.7,1.6,49.4,2.5,74c-7.1-3-14.2-6-21.4-9
		C396.6,550.7,396.3,534.3,396,517.8z"/>
	<path class="st14" d="M311.9,556.3c12.2,3.7,24.3,7.5,36.5,11.2c23.3,2.9,46.6,5.8,69.9,8.7c-7.2-3-14.4-6.1-21.6-9.1
		C368.4,563.5,340.1,559.9,311.9,556.3z"/>
	<polygon class="st15" points="321.4,527.5 322.1,547.1 379.2,554.8 378.2,533.6 	"/>
	<path class="st16" d="M455.2,515.7c0,0,36.6-2.8,51.4,5.4l-4.5,82.6l-42.5-8.2L455.2,515.7z"/>
	<path class="st17" d="M462,522.1l2.7,67.3l30.9,6.3l4.1-70.7C499.6,525,478.2,521.5,462,522.1z"/>
	<path class="st18" d="M477.9,531.5l6.7-1.3c0,0,6.6,1.1,6.9,9.6c0,0,0.3,6.6-5.5,9.6l-8.4-1.6L477.9,531.5z"/>
	
		<ellipse transform="matrix(0.1014 -0.9948 0.9948 0.1014 -108.667 959.4435)" class="st19" cx="476.8" cy="539.9" rx="8.4" ry="7.9"/>
	<path class="st20" d="M479.3,555.4l5.6-1c0,0,5.5,0.9,5.8,8.1c0,0,0.2,5.5-4.6,8.1l-7.1-1.4L479.3,555.4z"/>
	
		<ellipse transform="matrix(0.1014 -0.9948 0.9948 0.1014 -129.6603 981.2483)" class="st21" cx="478.3" cy="562.4" rx="7" ry="6.7"/>
	
		<ellipse transform="matrix(0.1483 -0.9889 0.9889 0.1483 -165.3304 971.0714)" class="st22" cx="481.1" cy="581.5" rx="4.8" ry="5.3"/>
	<polygon class="st23" points="376.5,540.1 325.2,533.2 325.6,530.4 376.9,537.3 	"/>
	<polygon class="st23" points="375.8,545.3 324.5,538.4 324.9,535.6 376.2,542.5 	"/>
	<polygon class="st23" points="375.1,550.6 323.9,543.7 324.2,540.9 375.5,547.8 	"/>
	<path class="st1" d="M689.3,531.6"/>
	<path class="st8" d="M203.2,488.7"/>
</g>
</svg>
